<svg xmlns="http://www.w3.org/2000/svg" xml:space="preserve" width="586.057" height="231.965" fill-rule="evenodd" clip-rule="evenodd" image-rendering="optimizeQuality" shape-rendering="geometricPrecision" text-rendering="geometricPrecision" viewBox="0 0 15603.81 6176.09"><path d="M13348.08 2087.3c57.31 0 32.54-107.33 23.64-171.26-8.11-58.18-15.88-65.13-28.22-119.4l-53.62-207.57c-.98-2.62-2.24-5.51-3.23-8.12-.99-2.63-2.16-5.58-3.15-8.21-64.88-173.52-72.92-167.4-135.03-296.49-13.36-27.77-7.78-19.33-22.51-45.63-95.1-169.63-106.9-167.89-203.05-296.6-24.09-32.24-38.55-54.45-65.74-81.88-49.67-50.11-92.23-91.57-142.16-141.74-324.32-293.68-542.11-425.87-959.04-570.27-226.82-78.56-378.4-97.73-608.59-126.96-303.92-38.6-835.01 8.77-1116.5 128.02-162.26 68.73-327.14 138.36-488.15 209.57-255.9 113.19-597.06 435.36-758.76 667.5-125.78 180.58-133.34 195.78-224.98 398.81-64.76 143.47-184.21 461.8-167.33 607.33 9.75 84.13 89.16 65.62 164.09 64.83 885.07-9.46 1777.46-1.93 2663.31-1.93h2129.01zM8058.5 4912.71c-34.69-9.31-96.27-32.28-130.87-50.83-126.6-67.86-179.18-131.9-257.48-230.82-171.32-216.45-192.23-607.41-81.03-853.41l68.54-124.5c220.21-310.7 637.83-389.07 977.04-239.95 258.84 119.99 396.41 316.17 443.7 595.63 8.12 53.99 10.58 102.13 11.31 156.55 0 67.79-14.21 100.6-21.93 159.76-13.47 103.29-56.34 177.26-106.58 268.17l-151.26 178.05c-1.94 1.43-4.88 3.11-6.83 4.52-182.5 119.46-260.68 171.47-490.01 173.38-157.32 1.31-104.73 5.28-254.6-36.55m1042.57-2484.74c-32.78 179.67-9.14 339.49-13.2 518.79-266.52-228.21-390.62-333.45-755.84-382.68-383.97-51.75-802.27 34.7-1122.11 256.47-83.6 59.46-144.37 106.12-219.86 176.34-1.69 1.62-4.12 3.95-5.77 5.6l-190.6 240.92c-173.84 291.28-259.01 518.05-259.01 910.62 0 295.55 65.5 516.38 177.9 741.9l106.36 177.54c16.32 25.33 21.34 25.58 41.52 49.32 92.98 109.46 71.92 103.69 180.1 194.64 37.12 31.22 69.41 57.27 104.3 88.75 190.08 163.49 582.6 313.38 833.73 315.1 351.14 2.56 611.07 7.2 919.23-192.93 57.61-37.41 179.88-174.15 208.49-180.93 13.92-3.3-3.68 62.19-5.45 80.15-5.91 59.77-22.01 217.61 58.02 235.22 39.56 8.71 691.64 1.54 791.03 1.54h25.55c40.19 0 79.49-70.48 79.49-113.56V2496.1c0-52.41-25.15-90.84-79.49-90.84h-783.55c-40.34 0-64.22 9.51-90.84 22.71M13927.22 4948.92c-275.58 0-430.2-29.07-638.81-235.57-391.53-387.6-284.85-1376.93 582.03-1376.93 201.12 0 371.23 83.52 512.09 203.31 380.96 323.99 322.77 1089.31-158.67 1319.74-89.59 42.88-192.29 89.45-296.64 89.45m-1192.34 488.3c160.59 84.97 71.34 76.7 363.29 193.13 434.79 166.54 1108.63 128.39 1462.74-199.47 144.71-133.99 76.24-127.75 94.62 94.68 1.47 17.81 14.35 108.25 23.1 117.36 21.91 22.84 769.48 20.83 843.53 3.94 103.76-23.67 77.18-227.76 77.62-312.23 3.66-770.81-14.17-1544.5-4.82-2314.33.94-77.3 20.25-261.9-1.34-320.92-39.14-106.99-201.59-82.05-292.75-80.34-78.03 1.46-555.77-5.04-587.44 8.27-80.5 33.85-63.15 170.75-61.78 246.77 2.47 136.22 19.41 113.43-84.76 11.12-408.99-401.66-1057.68-400.54-1561.1-197.69-121.64 50.29-270.43 135.89-364.61 225.88-142.84 136.48-157.31 131.34-285.69 316.16-55.04 79.24-98.06 165.82-139.27 258.18-97.36 226.7-143.48 500-121.26 745.65 3.18 74.52-2.47 281.45 72.57 317.79 89.27 43.22 161.13 3.15 322.33 100.25l11.63 7c66.24 46.69 101.88 92.95 146.88 159.06 116.11 184.53 131.46 410.71 86.5 619.73zM5314.42 3757.46c12.64 65.64 7.38 56.95-57.18 56.47-122.82 1.23-1280.7 7.1-1298.86-4.93-26.98-17.9 71.51-223.2 92.95-254.98 289.33-428.74 1110.83-411.05 1248.93 146.28zm-2322.7 362.5c0 418.97 140.4 825.22 441.9 1113.82l214.58 171.5c394.73 263.97 787.86 329.65 1255.89 314.77 416.46-16.29 912.61-166.89 1209.42-471.49 99.56-102.17 51.34-121.09-45.13-219.44-44.96-45.94-318.56-343.73-336.19-354.48-54.62-33.31-117.22 38.34-166.03 72.2-227.39 155.18-460.87 230.33-735.41 240.78-378.44 14.4-767.95-154.48-866.75-550.29-25.03-100.28-41.31-78.95 57.75-78.86 677.68.61 1355.31 4.61 2032.99 1.42 118.08-.57 164.27-20.54 187.35-154.47 44.5-258.13-53.83-660.92-176.29-890.2-103.62-194-218.19-303.76-386.07-441.11-47.94-38.91-220.01-143.2-285.26-168.97-339.02-133.94-584.21-174.79-959.8-140.13-38.81 3.58-47.03 10.25-84.96 17.24-31.75 5.85-59.5 5.36-91.32 10.88-102.18 17.72-212.19 59.16-305.93 91.53-90.79 31.36-186.22 86.83-261.31 136.13-108.75 71.4-128.62 80.98-225.43 172.02l-96.49 96.55c-242.72 238.51-377.51 676.73-377.51 1030.59zM84.67 3518.11c0 169.36 28.58 387.96 135.03 512.25 116.04 141.14 190.52 204.47 358 285.4 244.49 118.16 532.76 169.51 800.13 206.66 145.84 20.01 537.57 87.14 460.39 310.54-18.39 53.2-53.69 83.83-100.93 110.66-239.52 116.3-596.36 61.13-842.54-9.87-197.19-61.96-285.39-121.48-451.77-237.06-55.15-38.3-57.85-7.41-100.96 47.43-94.82 120.62-194.22 257.5-285.99 381.8-103.88 140.71-56.6 170.5 86.87 262.79 342.21 220.13 740.48 326.29 1145.47 332.41 325.23 0 617.14-12.1 908.58-158.86 32.86-16.54 55.15-30.35 89.56-46.69 164.24-77.96 331.13-254.47 414.04-437.64 131.14-289.7 92.69-702.85-150.38-936.56-475.67-421.95-1254.18-305.56-1484.46-541.47-23.35-25.91-32.58-46.1-42.31-79.02-40-165.3 169.2-246.52 321.8-252.52 344.19-9.38 526.76 22.83 828.37 192.07 126.53 70.99 119.31 15.96 191.38-96.96 43.41-68.02 281.5-403.13 253.82-465-46.98-105.04-454.29-244.91-578.79-275.79-301.95-74.89-618.19-89.51-926.59-52.05-79.22 10.66-147.39 26.19-223.94 48.92-197.98 61.28-404.66 162.62-546.51 305.15l-151.33 200.7c-12.64 26.41-10.61 22.61-22.56 45.59-19.65 37.78-30.66 59.67-44.25 103.37-16.03 51.53-40.11 184.18-40.11 243.78z"/><path d="M10634.08 5244.17c0 188.65 51.94 373.56 139.57 519.06l101.51 125.6c102.09 103.51 138.66 125.04 258.39 184.5 238.14 118.25 374.28 102.01 624.74 102.01 70.04 0 121.42-11.24 180.98-23.43l237.75-80.2c193.52-93.51 385.63-306.56 432.15-521.73 12.87-59.51 33.9-116.55 35.3-180.46 5.55-348.75-46.46-702.32-481.04-704.47-122.17-.6-339.53 29.07-343.1 188.43-2.41 107.66 73.36 506.88-116.87 480.67-132.55-18.27-67.97-374.84-65.51-475.38 8.29-339.88-3.22-681.37-4.54-1021.46l-.02-12.6V2223.56c-150.93-29.16-573.72-15.49-744.03-13.53-28.41.33-238.71-6.87-250.82 12.95-13.21 21.63-4.46 2626.65-4.46 2894.17v127.03z"/></svg>